<svg version="1.2" xmlns="http://www.w3.org/2000/svg" viewBox="0 0 1600 503" width="1600" height="503">
	<title>Bank_Central_Asia-svg</title>
	<style>
		.s0 { fill: #0060af } 
	</style>
	<path id="path22" fill-rule="evenodd" class="s0" d="m250.7 502c-66 0-133.9-16.2-201.7-48.4l-1.7-0.8-0.8-1.7c-30.4-64.1-46.5-134.3-46.5-203 0-68.6 15.4-135.7 45.9-199.8l0.8-1.7 1.7-0.9c62.7-29.7 130.2-44.7 200.6-44.7 65.6 0 135.6 16.7 202.5 48.5l1.7 0.8 0.8 1.7c31 65.3 47.4 135.5 47.4 203 0 67.3-15.7 134.5-46.8 199.9l-0.8 1.7-1.7 0.8c-61.8 29.2-131.4 44.6-201.4 44.6zm-195.5-57.2c65.9 31 131.6 46.6 195.5 46.6 67.8 0 135.2-14.8 195.2-42.8 29.8-63.3 44.9-128.5 44.9-193.6 0-65.3-15.8-133.3-45.6-196.7-64.9-30.5-132.7-46.7-196.2-46.7-68.2 0-133.5 14.4-194.3 42.9-29.2 62.2-44.1 127.2-44.1 193.6 0 66.5 15.5 134.5 44.6 196.7z"/>
	<path id="path20" fill-rule="evenodd" class="s0" d="m228.5 381.3c-0.4-29.5-16.2-54.9-35.6-68.2-15.9-10.8-37.7-18.5-75.2-27.8-35-8.6-44.4-45.3-33.9-72.9 11.4-29.6 32.5-39.9 57.8-42.1 36.5-4.4 94.3 51.7 93.9 131.1 0.5 6.6 0.3 59.9 0.3 79.9m-23.3 0c-4.1-20-30-30.2-46.3-26.7-9.5 2-29.3 6-45 5.4-25.6-0.9-42.6-24.9-44.6-39.5-1.6-12.5 0.1-34.1 9.6-43.6 3.6 8 15.2 14.3 26.3 17.1 35.9 9.1 58.2 16.2 74.7 26.9 18.7 12.2 33 34.8 32.9 60.4zm36.4-334.8q-0.5 0-1 0-0.6 0-1.1 0zm-1.1 0c43 0.5 79.9 29.1 79.7 78.2-0.1 41.7-33.6 64-45.6 79.9-18.1 24-28.3 51.4-28.9 94.9-0.5 33-0.1 69.2 0.1 81.9h-9.6c-0.2-12.1-0.1-46.3-0.9-80.9-1-43.5-10.8-71.9-28.9-95.9-12-15.9-45.5-38.2-45.7-79.9-0.1-49.1 36.8-77.7 79.8-78.2zm12.1 334.8c0-19.9-0.2-73.3 0.3-79.9-0.4-79.4 57.3-135.4 93.9-131.1 25.2 2.2 46.4 12.5 57.8 42.1 10.5 27.6 1 64.3-34 73-37.4 9.2-59.3 16.9-75.2 27.8-19.3 13.3-34.1 38.6-34.5 68.2zm15.6 0c-0.1-25.6 14.2-48.2 32.8-60.4 16.7-10.7 39-17.8 74.8-26.9 11.1-2.8 22.7-9.1 26.3-17.2 9.5 9.6 11.2 31.1 9.6 43.7-2 14.5-19 38.5-44.6 39.5-15.6 0.6-35.5-3.4-45-5.4-16.3-3.5-42.2 6.7-46.4 26.7zm13.4 82.6l-5.5-40.5 13.4-2.1c3.3-0.4 7.2 0.2 8.8 2.2 1.8 2.1 2.3 3.9 2.7 6.7 0.5 3.5-0.5 7.5-4.4 9.5v0.1c4.3 0 7 3.1 7.7 8.4 0.1 1.1 0.5 3.8 0.1 6.1-0.8 5.3-4 7.1-9.4 7.8zm8.6-7.3c1.6-0.2 3.2-0.3 4.5-1.1 1.9-1.2 1.7-3.9 1.5-5.9-0.7-4.4-1.9-6.1-6.5-5.4l-3 0.4 1.9 12.3zm-2.8-18.8c1.8-0.2 4.2-0.5 5.2-2.1 0.5-1.2 1.2-2.1 0.7-4.6-0.5-2.9-1.5-4.8-5.3-4.1l-3.5 0.6 1.4 10.4zm52.3 1.6c0.1 0.8 0.2 1.6 0.3 2.4 1.1 7.3-0.3 13.5-8.6 15.2-12.3 2.3-14.7-5.3-16.8-16l-1.2-5.8c-1.7-10.2-2.4-18 9.6-20.3 6.7-1.3 11.2 1.4 13.1 8.1 0.3 1 0.6 2 0.7 3l-7.3 1.6c-0.9-2.6-2-7.1-5.3-6.7-5.9 0.7-4 8.1-3.4 11.2l2.3 11.1c0.6 3.3 1.9 8.7 7.1 7.7 4.1-0.9 2.3-7.4 2-10zm11.8 12.2l-2.6-41.9 9.9-3 20.7 36.5-7.8 2.3-4.9-9.3-8.6 2.6 1.1 10.6zm6-19.7l6.3-1.8-8.3-16.9zm-250.1-12.1c3.1-9.9 5.8-17.2 17.6-14 6.4 1.8 10.3 4.6 10.1 11.9 0 1.6-0.6 3.3-0.9 4.9l-7.4-2c1-4.1 1.6-7.3-3.4-8.8-5.8-1.6-7.2 5.4-8 8.4l-3 11c-0.9 3.3-2 8.7 3 10 4.2 1.2 6.8-2.9 8.3-8.9l-5.1-1.4 1.7-6.4 12.1 3.9-5.7 21.2-5.6-1.5 1.3-4.5h-0.2c-2.5 3.7-5.7 4.1-8.4 3.5-12.1-3.2-10.8-11.1-7.9-21.7zm44.9 18l-3.6 17.2-8.2-1.8 8.7-40.2 14 3.1c8.2 1.8 10.6 5.4 9.5 12.9-0.7 4.2-2.8 8.8-7.8 8.6 4.2 1.5 4.5 3.7 3.7 7.4-0.3 1.6-2.6 11.5-1 13.1l0.1 1.2-8.5-2.2c-0.4-2.8 0.8-7.7 1.3-10.4 0.5-2.4 1.3-5.8-1.2-7-1.9-1.1-2.6-1-4.8-1.5zm12.6-0.2q-0.1 0-0.2-0.1v0.1q0.1 0 0.2 0zm-11.2-6l5.5 1.4c3.4 0.5 5.3-1.2 5.9-5.2 0.6-3.8-0.2-5.2-3.2-5.9l-5.9-1.2zm51.2-9.6l8.1 1-3.5 28.3c-1.7 8.9-5.2 12.9-15.1 11.6-10-1.2-12.4-5.8-11.8-14.9l3.5-28.2 8.2 0.9-3.5 27.7c-0.4 3-1.1 7.4 4.2 7.9 4.8 0.4 5.9-2.7 6.4-6.6zm17 42.4l2.5-40.5 15.5 0.7c7.4 0.4 9.3 6.4 9.1 12.1-0.2 3.5-1.3 7.4-4.4 9.5-2.4 1.8-5.6 2.2-8.6 2.1l-5.1-0.3-1 17zm9.2-22.7l4.1 0.3c3.4 0.1 5.6-1.2 5.9-6.1 0.2-4.8-1.6-5.6-6-5.8l-3.2-0.1z"/>
	<path id="path46" fill-rule="evenodd" class="s0" d="m1327.2 85.6l-61.8 112.2c-23.4-18.9-51.9-32.9-88.3-32.9-86 0-121 64.2-121 109.3 0 33.5 22 83 98.6 83 32.1 0 77.8-22.3 91-32.5l-61.2 130.2c-29.2 5.8-38.8 9.4-63.4 10.1-137.1 4.1-192.5-80-192.5-166 0.1-113.7 101.2-251.9 268.9-251.9 10.3 0 22.9 3.5 33.6 7.4l10.9-13.8m340.5 3.5l17.5 407.7h-130.4v-69.9h-88.9l-29.3 69.9h-141.4l147.8-291.1-33.3-0.2 63.3-116.4zm-113.7 124.7l-50.3 118.6h51.8zm-622.4-124.7c64.5 0.3 101 35.4 101 85.9 0 46.7-38.5 88-80.7 109.3 43.5 16 47.2 55.2 47.2 82.9 0 67-67.3 129.6-154.7 129.6h-190.8l74.4-287.1-30.6-0.1 62.5-120.5c0 0 119.2-0.4 171.7 0zm-63.4 165.3c13.4 0 37-3.4 42.9-29.2 6.4-28-15.7-28.8-26.3-28.8l-38-0.1-13.2 58.1zm-53.6 72.1l-17.5 67h44.7c17.6 0 41.5-8.7 47.4-30.5 5.8-21.9-11-36.5-28.5-36.5z"/>
</svg>