<svg xmlns="http://www.w3.org/2000/svg" width="1176" height="250" viewBox="0 0 1176 250" version="1.1"><path d="M 165 94.431 L 165 174.863 155.647 175.181 C 146.657 175.488, 146.222 175.403, 144.443 173 C 143.195 171.313, 143.078 170.825, 144.086 171.500 C 144.906 172.050, 144.418 171.375, 143 170 C 141.582 168.625, 141.114 167.950, 141.959 168.500 C 143.993 169.823, 138.465 162.194, 135.075 159 C 133.616 157.625, 132.907 156.725, 133.500 157 C 134.093 157.275, 133.418 156.375, 132 155 C 130.582 153.625, 130.115 152.950, 130.961 153.500 C 132.323 154.385, 132.335 154.271, 131.066 152.500 C 130.277 151.400, 128.252 149.225, 126.566 147.666 C 124.880 146.107, 124.175 145.144, 125 145.526 C 125.825 145.907, 125.354 145.158, 123.953 143.860 C 122.552 142.562, 122.084 141.950, 122.914 142.500 C 123.766 143.065, 123.430 142.085, 122.141 140.248 C 120.887 138.459, 119.056 136.565, 118.072 136.039 C 117.088 135.512, 115.466 133.825, 114.467 132.291 C 113.189 130.328, 113.085 129.797, 114.114 130.500 C 114.919 131.050, 114.418 130.375, 113 129 C 111.582 127.625, 111.097 126.950, 111.922 127.500 C 112.755 128.055, 112.409 127.055, 111.143 125.250 C 109.889 123.462, 108.614 122, 108.309 122 C 108.005 122, 108.315 122.675, 109 123.500 C 109.685 124.325, 109.995 125, 109.691 125 C 109.386 125, 108.111 123.538, 106.857 121.750 C 105.591 119.945, 105.245 118.945, 106.078 119.500 C 106.903 120.050, 106.418 119.375, 105 118 C 103.582 116.625, 102.907 115.725, 103.500 116 C 104.093 116.275, 103.418 115.375, 102 114 C 100.582 112.625, 99.907 111.725, 100.500 112 C 101.093 112.275, 100.298 111.367, 98.734 109.981 C 96.276 107.804, 95.419 106.109, 95.077 102.750 C 95.034 102.338, 94.495 102, 93.878 102 C 93.102 102, 93.140 102.464, 94 103.500 C 94.860 104.536, 94.898 105, 94.122 105 C 93.307 105, 93 119.333, 93 157.440 L 93 209.880 105.239 223.440 L 117.477 237 168.739 237 L 220 237 220 137.619 L 220 38.237 209.250 26.166 L 198.500 14.095 181.750 14.048 L 165 14 165 94.431 M 93.209 89.177 L 93.419 100.500 93.748 90.511 C 93.951 84.384, 94.540 80.131, 95.272 79.511 C 95.929 78.955, 96.141 78.909, 95.742 79.408 C 94.888 80.478, 96.748 83.007, 98.372 82.985 C 98.993 82.976, 98.825 82.543, 98 82.021 C 97.175 81.500, 96.500 80.500, 96.500 79.800 C 96.500 79.100, 95.713 78.376, 94.750 78.190 C 93.157 77.884, 93.019 78.868, 93.209 89.177 M 102.500 89.488 C 103.600 90.367, 104.275 91.241, 104 91.431 C 103.199 91.983, 110.011 101, 111.229 101 C 111.836 101, 112.037 101.296, 111.675 101.658 C 110.836 102.497, 112.883 105.010, 114.372 104.970 C 114.993 104.953, 114.703 104.475, 113.729 103.908 C 112.755 103.341, 112.205 102.477, 112.507 101.989 C 112.809 101.500, 112.105 100.591, 110.942 99.969 C 109.780 99.347, 109.089 98.577, 109.408 98.259 C 109.727 97.940, 109.083 97.046, 107.977 96.271 C 106.871 95.497, 106.196 94.491, 106.478 94.036 C 106.759 93.582, 106.288 92.941, 105.431 92.612 C 104.574 92.283, 104.139 91.584, 104.465 91.057 C 104.790 90.531, 104.031 89.603, 102.778 88.995 C 100.559 87.918, 100.552 87.931, 102.500 89.488 M 129.700 126.633 C 129.352 126.981, 130.505 129.268, 132.262 131.715 C 135.935 136.830, 136.921 137.668, 136.587 135.392 C 136.457 134.503, 135.587 133.348, 134.654 132.826 C 133.721 132.304, 133.205 131.477, 133.507 130.989 C 133.809 130.500, 133.131 129.605, 132 129 C 130.869 128.395, 130.208 127.472, 130.531 126.950 C 131.195 125.876, 130.661 125.673, 129.700 126.633" stroke="none" fill="#fae515" fill-rule="evenodd"/><path d="M 17 112.370 L 17 210.740 28.750 223.855 L 40.500 236.971 57 236.735 L 73.500 236.500 73.500 156.219 L 73.500 75.937 83.917 76.219 L 94.334 76.500 102.369 87.500 C 113.898 103.283, 125.708 119.593, 136.221 134.250 C 141.251 141.262, 145.621 147, 145.933 147 C 146.245 147, 146.380 122.652, 146.233 92.893 L 145.966 38.785 133.815 26.392 L 121.665 14 69.332 14 L 17 14 17 112.370 M 487.428 47.571 C 472.094 50.936, 461.050 56.626, 449.826 66.944 C 438.309 77.532, 431.498 89.313, 426.953 106.504 C 424.900 114.270, 424.439 136.383, 426.197 142.751 C 426.728 144.675, 427.346 147.206, 427.570 148.375 C 428.965 155.666, 434.264 166.490, 440.500 174.785 C 449.418 186.648, 463.244 196.824, 476.025 200.931 C 488.490 204.937, 493.931 205.849, 505.516 205.873 C 527.848 205.921, 544.622 199.756, 561.762 185.202 C 566.574 181.116, 574.830 170.214, 578.398 163.235 C 581.368 157.424, 585.994 143.268, 586.704 137.813 C 588.688 122.575, 586.325 104.996, 580.679 93 C 579.040 89.518, 572.753 78.749, 571.519 77.312 C 570.959 76.659, 569.249 74.562, 567.720 72.651 C 565.184 69.483, 554.376 60.332, 549.500 57.226 C 545.024 54.374, 536.069 50.680, 529 48.770 C 519.559 46.219, 496.607 45.557, 487.428 47.571 M 647.717 48.110 C 639.472 50.081, 631.296 53.652, 626.690 57.296 C 615.043 66.507, 608.840 75.855, 605.607 89.064 C 601.050 107.678, 607.192 126.139, 620.858 134.909 C 626.580 138.581, 636.073 142.572, 641 143.376 C 648.780 144.647, 658.264 147.899, 660.606 150.100 C 663.742 153.045, 663.434 156.608, 659.812 159.300 C 652.723 164.569, 632.879 159.265, 616.692 147.775 C 615.148 146.679, 613.739 145.943, 613.560 146.141 C 613.029 146.729, 609 155.842, 609 156.456 C 609 156.767, 608.167 158.929, 607.148 161.261 C 601.868 173.345, 595.711 189.050, 596.121 189.388 C 599.279 191.994, 625 202.623, 625 201.322 C 625 201.010, 625.563 201.211, 626.250 201.768 C 626.938 202.326, 629.300 203.028, 631.500 203.328 C 633.700 203.629, 637.525 204.326, 640 204.877 C 645.650 206.135, 665.021 206.147, 671 204.896 C 673.475 204.378, 676.850 203.708, 678.500 203.406 C 682.899 202.600, 693.758 197.185, 699.500 192.934 C 711.067 184.369, 718.011 172.860, 721.053 157.209 C 724.137 141.348, 716.914 122.784, 704.438 114.503 C 699.616 111.302, 685.736 106, 682.179 106 C 678.626 106, 663.735 100.632, 661.938 98.703 C 659.620 96.215, 659.426 92.721, 661.509 90.992 C 664.265 88.706, 675.439 88.207, 681.550 90.097 C 684.581 91.035, 687.385 91.895, 687.781 92.008 C 689.467 92.491, 696.725 96.420, 699.353 98.272 C 701.716 99.937, 702.358 100.044, 703.088 98.892 C 703.573 98.126, 703.976 97.160, 703.985 96.745 C 703.993 96.330, 705.125 93.658, 706.500 90.808 C 707.875 87.958, 709 85.215, 709 84.714 C 709 84.213, 709.675 82.272, 710.500 80.401 C 716.579 66.617, 719.271 59.937, 718.886 59.588 C 715.947 56.917, 697.265 49.764, 689.937 48.503 C 688.047 48.178, 684.925 47.519, 683 47.038 C 676.712 45.467, 656.164 46.092, 647.717 48.110 M 280 125.422 L 280 202 307.500 202 L 335 202 335 179.631 L 335 157.262 353.750 156.771 C 370.858 156.324, 373.222 156.038, 380.748 153.509 C 385.284 151.984, 390.234 149.671, 391.748 148.369 C 393.262 147.068, 394.769 146.002, 395.097 146.001 C 396.104 145.999, 399.462 142.688, 402.329 138.870 C 409.439 129.401, 413.024 111.575, 410.981 95.855 C 408.980 80.457, 405.020 71.600, 396.583 63.654 C 392.529 59.836, 380.792 53.563, 376 52.653 C 374.625 52.392, 372.825 51.929, 372 51.623 C 367.965 50.130, 358.316 49.690, 320.750 49.284 L 280 48.843 280 125.422 M 728.667 49.667 C 727.834 50.500, 727.778 96.257, 728.607 98.418 C 729.122 99.761, 731.427 100, 743.857 100 L 758.500 100 758.218 148.750 C 758.063 175.562, 758.184 198.513, 758.487 199.750 L 759.038 202 786.519 202 L 814 202 814 151.027 L 814 100.053 828.750 99.777 L 843.500 99.500 843.767 74.250 L 844.034 49 786.684 49 C 755.141 49, 729.033 49.300, 728.667 49.667 M 861 125.431 L 861 202 888.564 202 L 916.129 202 915.814 177.581 C 915.641 164.151, 915.570 153.239, 915.657 153.331 C 915.743 153.424, 918.405 158.450, 921.573 164.500 C 924.741 170.550, 929.396 179.326, 931.917 184.002 C 934.438 188.678, 937.585 194.644, 938.911 197.260 L 941.323 202.017 996.911 201.758 C 1033.084 201.590, 1052.520 201.151, 1052.556 200.500 C 1052.624 199.302, 1053.688 194.253, 1055.248 187.730 L 1056.388 182.961 1076.879 183.230 L 1097.371 183.500 1098.689 188.500 C 1099.414 191.250, 1100.275 195.075, 1100.602 197 C 1100.930 198.925, 1101.405 200.838, 1101.658 201.250 C 1101.911 201.663, 1115.419 202, 1131.676 202 C 1159.372 202, 1161.198 201.890, 1160.673 200.250 C 1160.365 199.287, 1157.127 189.950, 1153.477 179.500 C 1149.827 169.050, 1146.467 159.375, 1146.010 158 C 1145.553 156.625, 1142.868 148.975, 1140.043 141 C 1137.219 133.025, 1133.785 123.125, 1132.412 119 C 1131.039 114.875, 1129.512 110.600, 1129.018 109.500 C 1128.525 108.400, 1126.270 102.100, 1124.007 95.500 C 1114.646 68.191, 1109.174 52.399, 1108.501 50.750 C 1107.842 49.138, 1105.404 49, 1077.487 49 L 1047.188 49 1045.474 53.750 C 1044.532 56.362, 1042.230 62.884, 1040.359 68.243 C 1032.064 92, 1029.893 98.170, 1026.103 108.748 C 1023.886 114.934, 1021.591 120.896, 1021.001 121.998 C 1020.412 123.099, 1020.164 124, 1020.450 124 C 1020.737 124, 1020.086 126.245, 1019.004 128.989 C 1017.923 131.732, 1015.498 138.370, 1013.616 143.739 C 1011.733 149.107, 1008.533 158, 1006.504 163.500 C 1004.474 169, 1001.951 176.200, 1000.896 179.500 C 999.841 182.800, 998.566 186.400, 998.062 187.500 C 997.558 188.600, 996.982 190.119, 996.781 190.875 C 996.581 191.631, 993.536 187.806, 990.016 182.375 C 986.496 176.944, 978.977 165.468, 973.308 156.873 C 967.639 148.278, 963 141.001, 963 140.702 C 963 140.404, 964.462 139.844, 966.250 139.459 C 970.012 138.649, 974.808 136.335, 976.750 134.392 C 977.492 133.651, 978.651 132.697, 979.326 132.272 C 982.197 130.466, 986.856 123.035, 988.900 117 C 993.558 103.245, 992.358 88.653, 985.435 74.883 C 979.062 62.206, 965.237 53.285, 947.500 50.405 C 945.300 50.048, 924.938 49.554, 902.250 49.309 L 861 48.862 861 125.431 M 93.815 90.731 C 93.642 96.654, 93.855 101.950, 94.289 102.500 C 95.253 103.722, 112.394 127.045, 118.909 136 C 133.500 156.055, 142.731 168.577, 144.500 170.713 L 146.500 173.129 146.189 161.532 L 145.878 149.936 137.454 138.718 C 132.820 132.548, 128.463 126.263, 127.771 124.750 C 127.078 123.237, 126.267 122, 125.967 122 C 125.668 122, 123.190 118.817, 120.461 114.927 C 117.733 111.036, 114.212 106.199, 112.638 104.177 C 111.064 102.155, 106.674 96.137, 102.883 90.805 C 99.091 85.473, 95.570 80.852, 95.059 80.536 C 94.515 80.200, 93.999 84.431, 93.815 90.731 M 915.801 103.428 L 916.103 118 922.091 118 C 928.579 118, 934.797 115.556, 937.262 112.037 C 938.029 110.942, 938.756 107.582, 938.877 104.569 C 939.296 94.234, 934.751 89.988, 922.500 89.268 L 915.500 88.857 915.801 103.428 M 335 105 L 335 117 339.451 117 C 345.821 117, 353.124 115.206, 355.822 112.979 C 357.492 111.601, 358.297 109.649, 358.686 106.029 C 359.665 96.925, 354.647 93, 342.032 93 L 335 93 335 105 M 494.459 100.367 C 488.155 103.302, 484.453 107.633, 482.498 114.359 C 480.361 121.709, 480.071 127.159, 481.464 133.780 C 483.111 141.614, 485.343 145.511, 490.190 149.023 C 495.432 152.820, 501.018 154.316, 507.989 153.790 C 514.720 153.282, 519.887 150.911, 524.409 146.256 C 532.526 137.899, 532.793 116.945, 524.924 105.893 C 519.579 98.387, 504.562 95.663, 494.459 100.367 M 1075.982 101.500 C 1075.473 108.546, 1074.146 115.848, 1071.894 124 C 1070.754 128.125, 1069.640 132.447, 1069.418 133.605 C 1069.195 134.763, 1068.335 137.632, 1067.507 139.981 C 1065.090 146.832, 1064.885 146.680, 1076.417 146.586 C 1087.110 146.498, 1089.062 145.991, 1087.235 143.774 C 1086.657 143.073, 1085.704 140.025, 1085.116 137 C 1084.528 133.975, 1082.939 127.446, 1081.584 122.490 C 1080.230 117.535, 1078.819 111.251, 1078.450 108.527 C 1078.080 105.803, 1077.406 102.657, 1076.952 101.537 C 1076.136 99.524, 1076.125 99.523, 1075.982 101.500" stroke="none" fill="#040404" fill-rule="evenodd"/></svg>