<svg version="1.2" xmlns="http://www.w3.org/2000/svg" viewBox="0 0 1565 473" width="1565" height="473">
	<title>ASX_WOR_2021-1-pdf-svg</title>
	<defs>
		<clipPath clipPathUnits="userSpaceOnUse" id="cp1">
			<path d="m-600.02-620.04h7135.91v9294.36h-7135.91z"/>
		</clipPath>
		<linearGradient id="g1" x1="665.6" y1="318.3" x2="545.3" y2="175" gradientUnits="userSpaceOnUse">
			<stop offset="0" stop-color="#034a98"/>
			<stop offset=".1" stop-color="#034a98"/>
			<stop offset="1" stop-color="#54d2f7"/>
		</linearGradient>
		<linearGradient id="g2" x1="587.8" y1="268.8" x2="512.7" y2="107.7" gradientUnits="userSpaceOnUse">
			<stop offset="0" stop-color="#ff2e17"/>
			<stop offset=".2" stop-color="#ff2e17"/>
			<stop offset=".9" stop-color="#ff5720"/>
			<stop offset="1" stop-color="#ff5720"/>
		</linearGradient>
	</defs>
	<style>
		.s0 { fill: #ff2e17 } 
		.s1 { fill: #034b98 } 
		.s2 { fill: url(#g1) } 
		.s3 { fill: url(#g2) } 
	</style>
	<g id="Clip-Path: Page 1" clip-path="url(#cp1)">
		<g id="Page 1">
			<path id="Path 4" class="s0" d="m388.2 392.6h9.2v78.8h-9.2zm459.3 0h9.2v78.8h-9.2z"/>
			<path id="Path 3" fill-rule="evenodd" class="s1" d="m128.8 445.3l2.5-0.3 0.1 7q-9.8 2-17.2 2-9.5 0-13.6-5.2-4.2-5.2-4.2-16.6 0-22.8 18.5-22.8 18 0 18 19.6l-0.6 6.6h-26.5q0.1 5.4 2.3 7.8 2.3 2.5 8.3 2.5 6.1 0 12.4-0.6zm-5.1-16.8q0-6.4-2-9-1.9-2.4-6.8-2.4-4.8 0-6.9 2.6-2.2 2.7-2.3 8.8zm30 24.6h-9.4v-42.8h9.3v2.7q6.2-3.6 11.7-3.6 8.6 0 11.7 4.8 3.2 4.9 3.2 16v22.9h-9.3v-22.7q0-6.9-1.5-9.9-1.5-2.8-6-2.8-4.5 0-8.4 1.7l-1.3 0.5zm70.3-7.7l2.3-0.3 0.3 6.9q-9.8 2-17.3 2-9.6 0-13.6-5.2-4.3-5.2-4.1-16.6-0.2-22.8 18.4-22.8 17.9 0 17.9 19.6l-0.6 6.7h-26.4q0.1 5.3 2.3 7.8 2.2 2.4 8.3 2.4 6.1 0 12.5-0.5zm-5.2-16.9q0-6.3-2-8.9-2-2.5-6.8-2.5-4.7 0-6.9 2.6-2.2 2.7-2.2 8.8zm20.6 24.6v-42.8h9.2v5.2q7.3-4.7 14.6-6.1v9.3q-7.5 1.5-12.7 3.8l-1.8 0.8v29.8zm70.5 5.8q0 14-20.3 14-9.8 0-14.5-2.7-4.7-2.6-4.7-9.7 0-3.1 1.7-5.3 1.4-2.3 4.9-4.9-2.8-1.9-2.8-6.2 0-1.8 2.3-5.6l0.7-1.3q-6.1-3.6-6.1-12.8 0-7.7 4.5-11.3 4.7-3.5 12.5-3.5 3.9 0 7.5 0.8l1.3 0.3 13.3-0.4v7.5l-7.2-0.4q2.3 2.9 2.3 7 0 8.3-4.2 11.5-4.2 3.2-13.2 3.2-2.2 0-3.7-0.3-1.3 2.9-1.3 4.5 0 1.5 1.6 2.1 1.7 0.7 7.7 0.8 10.2 0.1 13.9 2.7 3.8 2.6 3.8 10zm-30.3 0.9q0 3 2.3 4.2 2.5 1.2 8.3 1.2 10.3 0 10.3-5.8 0-3.3-1.7-4.2-1.9-1-7.4-1l-8.3-0.5q-1.9 1.5-2.8 2.9-0.7 1.2-0.7 3.2zm2.6-29.7q1.9 1.9 6.1 1.9 4.2 0 6-1.9 1.8-1.9 1.8-5.7 0-4-1.9-5.8-1.9-1.9-6.1-1.9-7.8 0-7.8 7.7 0 3.8 1.9 5.7zm33.8-19.7h9.1l9.1 34.7h2.3l9-34.7h9.3l-16.3 61h-9l5-18.3h-7.3zm134.8-1q4.4 0 10.6 1.1l2.1 0.5-0.3 7.3q-6.8-0.6-10-0.6-6.5 0-8.8 2.9-2.1 2.9-2.1 11 0 8 2.1 11 2.1 3.1 9 3.1l9.8-0.6 0.3 7.4q-8.5 1.5-13 1.5-9.6 0-13.6-5.2-4-5.3-4-17.2 0-12 4.1-17.1 4.2-5.1 13.8-5.1zm33.6 43.7h-9.3v-60.5h9.3v19.9q6.3-3.1 11.6-3.1 8.6 0 11.8 4.9 3.1 4.8 3.1 15.9v22.9h-9.3v-22.6q0-7-1.5-9.9-1.5-2.9-6.2-2.9-4.1 0-8.1 1.4l-1.4 0.5zm70.3-7.7l2.3-0.2 0.3 6.9q-9.8 2-17.3 2-9.4 0-13.7-5.4-4-5.2-4-16.5 0-22.8 18.4-22.8 17.9 0 17.9 19.5l-0.5 6.7h-26.4q0 5.3 2.2 7.8 2.2 2.5 8.3 2.5 6 0 12.5-0.5zm-5.1-17q0-6.3-2.1-8.7-2-2.6-6.8-2.6-4.7 0-6.9 2.7-2.1 2.6-2.3 8.6zm30 24.7h-9.3v-42.7h9.3v2.6q5.9-3.6 11-3.6 7.4 0 10.9 4.2 7.8-4.2 15.4-4.2 7.7 0 10.8 4.8 3.2 4.7 3.2 16v22.9h-9.3v-22.7q0-6.9-1.3-9.7-1.4-3-5.8-3-3.9 0-8.3 1.7l-1.5 0.6q0.7 1.8 0.7 10.9v22.2h-9.2v-21.9q0-7.7-1.4-10.5-1.4-3-5.9-3-4.4 0-8 1.7l-1.3 0.5zm64.8-42.7h9.3v42.7h-9.3zm0-17.1h9.3v9.8h-9.3zm39.1 16.2q4.6 0 10.8 1.3l2.1 0.3-0.4 7.3q-6.7-0.6-10-0.6-6.5 0-8.7 2.9-2.2 2.9-2.2 11 0 8 2.1 11 2.1 3.1 8.9 3.1l10-0.6 0.3 7.4q-8.7 1.5-13 1.5-9.8 0-13.8-5.2-3.9-5.3-3.9-17.2 0-12 4.2-17.1 4.2-5.1 13.6-5.1zm55.9 14.1v19.5q0.1 1.8 1 2.8 1 0.9 2.9 1.1l-0.3 7.1q-7.4 0-11.4-3.1-6.8 3.1-13.7 3.1-12.7 0-12.7-13.6 0-6.5 3.4-9.3 3.5-3 10.7-3.6l11-0.9v-3.1q0-3.4-1.5-4.8-1.5-1.4-4.5-1.4-5.4 0-13.6 0.8l-2.7 0.1-0.4-6.6q9.3-2.2 17.1-2.2 7.8 0 11.4 3.4 3.3 3.3 3.3 10.7zm-19 10.5q-6 0.7-6 6.5 0 5.9 5.2 5.9 4.4 0 9.1-1.3l1.6-0.5v-11.4zm33.9-41.6h9.2v60.5h-9.2zm53.3 26.6q-10.2-1.3-14.6-1.3-4.6 0-6.3 1-1.8 1.1-1.8 3.4 0 2.2 1.9 3.2 2 0.9 9 2.3 7.2 1.2 10.2 3.8 2.9 2.6 2.9 9.4 0 6.7-4.2 9.9-4.3 3.1-12.6 3.1-5.2 0-13.2-1.4l-2.6-0.5 0.4-7.8q10.2 1.5 14.7 1.5 4.6 0 6.4-1.1 2-1.1 2-3.7 0-2.6-1.9-3.6-1.8-1-8.7-2.1-7-1.1-10.3-3.6-3.2-2.5-3.2-9.1 0-6.6 4.4-9.8 4.6-3.2 11.5-3.2 5.5 0 13.5 1.3l2.6 0.5zm89.9 33.9v-42.8h9.2v5.2q7.3-4.7 14.6-6.1v9.3q-7.4 1.5-12.6 3.7l-1.9 0.9v29.8zm63.5-7.8l2.3-0.2 0.3 6.9q-9.8 2-17.3 2-9.4 0-13.6-5.2-4.1-5.2-4.1-16.6 0-22.8 18.4-22.8 18 0 18 19.6l-0.5 6.7h-26.5q0 5.3 2.2 7.8 2.2 2.5 8.3 2.5 6.1 0 12.5-0.7zm-5.1-16.8q0-6.3-2.1-8.9-2-2.5-6.8-2.5-4.7 0-6.9 2.6-2.1 2.7-2.2 8.8zm50.3-9.3q-10.1-1.5-14.6-1.5-4.6 0.2-6.3 1.2-1.7 1.1-1.7 3.3 0 2.3 1.8 3.3 2 0.9 9.1 2.1 7.1 1.3 10.1 4 3 2.6 3 9.4 0 6.7-4.4 9.9-4.3 3.1-12.5 3.1-5.1 0-13.2-1.5l-2.6-0.4 0.4-7.7q10.1 1.3 14.7 1.3 4.6 0 6.4-1.1 2-1.1 2-3.6 0-2.6-1.8-3.6-1.9-1-8.8-2.1-7.1-1.2-10.3-3.7-3.2-2.5-3.2-9 0-6.6 4.4-9.8 4.6-3.2 11.6-3.2 5.4 0 13.4 1.3l2.6 0.5zm15.4-4.2q4.3-5.5 14.6-5.5 10.2 0 14.7 5.5 4.3 5.6 4.3 16.6 0 11.1-4.2 16.8-4.3 5.6-14.8 5.6-10.5 0-14.7-5.6-4.4-5.7-4.4-16.8 0-11 4.5-16.6zm6.9 27.7q2 3.5 7.7 3.5 5.7 0 7.6-3.5 2-3.3 2-11.1 0-7.8-2.1-11-2.1-3.2-7.5-3.2-5.5 0-7.6 3.2-2.1 3.2-2.1 11 0 7.8 2 11.1zm64.5-32.3h9.1v42.7h-9.1v-2.7q-6.3 3.6-11.7 3.6-8.8 0-11.7-4.7-3-4.7-3-16.6v-22.3h9.3v22.3q0 7.8 1.3 10.4 1.3 2.6 6 2.6 4.6 0 8.4-1.6l1.4-0.5zm23 42.7v-42.8h9.2v5.2q7.2-4.7 14.5-6.1v9.3q-7.3 1.5-12.6 3.8l-1.9 0.8v29.8zm49-43.7q4.6 0 10.8 1.3l2.1 0.3-0.4 7.3q-6.6-0.6-9.9-0.6-6.5 0-8.7 2.9-2.3 2.9-2.3 11 0 8 2.1 11 2.3 3.1 8.9 3.1l10.1-0.6 0.2 7.4q-8.7 1.5-13 1.5-9.8 0-13.7-5.2-4-5.3-4-17.2 0-12 4.2-17.1 4.2-5.1 13.6-5.1zm54.4 36l2.4-0.3 0.1 6.9q-9.7 2-17.1 2-9.6 0-13.7-5.2-4.2-5.2-4.2-16.6 0-22.8 18.6-22.8 17.9 0 17.9 19.6l-0.6 6.7h-26.5q0.2 5.3 2.4 7.8 2.2 2.4 8.3 2.4 6 0 12.4-0.5zm-5.1-16.9q0-6.3-2-8.9-2-2.5-6.8-2.5-4.8 0-6.9 2.6-2.3 2.7-2.4 8.8zm50.4-9.3q-10.1-1.4-14.6-1.4-4.6 0-6.3 1-1.8 1.1-1.8 3.4 0 2.3 2 3.3 1.9 0.9 9 2.1 7.1 1.3 10.2 4 3 2.6 3 9.4 0 6.7-4.4 9.9-4.3 3.1-12.6 3.1-5.2 0-13.1-1.4l-2.7-0.5 0.3-7.8q10.3 1.4 14.9 1.4 4.4 0 6.4-1.1 1.9-1.1 1.9-3.6 0-2.6-1.9-3.6-1.8-1-8.8-2.1-6.9-1.3-10.1-3.7-3.3-2.5-3.2-9.1-0.1-6.5 4.4-9.7 4.5-3.3 11.5-3.3 5.5 0 13.4 1.4l2.6 0.5zm-444.3-292.9c16.5-20.1 47.7-37.5 77.5-37.5v76.3c-4.7-1.5-11.4-2.5-19.6-2.5-20.5 0-47.6 8.7-57.9 23.1v156.9h-78.9v-247.6h49.9c16 0 29 12.9 29 29zm134.6 216.4c-16 0-29-13-29-29.1v-312.9h78.9v342zm210.6-253.9c73.2 0 126.5 53.9 126.5 137.9v17h-176.3c4.6 23 26.1 44 63 44 22.1 0 46.6-8.6 60.5-21l33.3 49.2c-24.5 22.1-65.6 32.8-103.5 32.8-76.3 0-135.3-49.7-135.3-130.2 0-71.7 54.3-129.7 131.8-129.7zm-50.8 103.6h102c-2.1-17.4-14.9-42.6-51.2-42.6-34.4 0-47.7 24.7-50.8 42.6zm-874.8-64.2l-51.8 214.3h-67.4c-13.1 0-24.3-8.6-27.7-20.7l-92.1-321.3h94.9l51.8 228.2 58.4-228.2h68l58.4 228.1 46.7-206c3.1-12.7 14.5-22.1 28.2-22.1h71.7l-97.9 341.8h-89.2l-51.7-214.2zm1324.1-33.2l-118.9 302.5c-20 52.2-57.5 64.6-104.6 65.6h-16.9v-69.1h13.8c17.9-0.4 28.2-9.9 35.1-19.3 7.3-10 11.1-28.5 11.1-28.5l-98.3-251.2h83l55.8 156.9 49.5-137.6v-0.1c4.1-11.2 14.7-19.2 27.3-19.2z"/>
			<path id="Path 8" class="s2" d="m634.8 99.9c45.4 20.3 77.2 65.8 77.2 118.8 0 71.8-58.2 129.9-129.9 129.9-53 0-98.6-31.7-118.8-77.2h118.8c29.1 0 52.7-23.6 52.7-52.7z"/>
			<path id="Path 9" class="s3" d="m582.1 88.7c18.7 0 36.5 4 52.7 11.2v118.8c0-29.1-23.6-52.7-52.7-52.7-29.1 0-52.7 23.6-52.7 52.7 0 29.1 23.6 52.7 52.7 52.7h-118.8c-7.2-16.1-11.1-33.9-11.1-52.7 0-71.8 58.1-130 129.9-130z"/>
		</g>
	</g>
</svg>